<svg t="1637846407090" class="icon" viewBox="0 0 1024 1024" version="1.1" xmlns="http://www.w3.org/2000/svg" p-id="1116" width="200" height="200"><path d="M861.5 810.7H594.6c-9.5 36.8-42.9 64-82.6 64-39.9 0-73.4-27.4-82.7-64.3-1.2 0.2-2.5 0.3-3.8 0.3h-263l64 128h571l64-128zM855 768l-89.6-128H261c-0.8 0-1.6 0-2.3-0.1L169 768h256.5c1.3 0 2.6 0.1 3.8 0.3 9.4-37 42.8-64.3 82.7-64.3 39.8 0 73.2 27.2 82.6 64H855zM735.6 597.3L579.9 374.9c-2.5-3.6-3.9-7.9-3.9-12.2V213.3c0-5.7 2.2-11.1 6.2-15.1l48.9-48.9-42.7-42.7h-153l-42.7 42.7 48.9 48.9c4 4 6.2 9.4 6.2 15.1v149.3c0 4.4-1.3 8.6-3.9 12.2L288.4 597.3h447.2zM405.3 222.2l-57.8-57.8c-8.3-8.3-8.3-21.8 0-30.2l64-64c4-4 9.4-6.2 15.1-6.2h170.7c5.7 0 11.1 2.2 15.1 6.2l64 64c8.3 8.3 8.3 21.8 0 30.2l-57.8 57.8V356l294.8 421.2c4.5 6.4 5.1 14.8 1.6 21.8l-85.3 170.7c-3.6 7.2-11 11.8-19.1 11.8H213.3c-8.1 0-15.5-4.6-19.1-11.8L108.9 799c-3.5-7-2.9-15.4 1.6-21.8L405.3 356V222.2zM512 832c23.6 0 42.7-19.1 42.7-42.7s-19.1-42.7-42.7-42.7-42.7 19.1-42.7 42.7S488.4 832 512 832z" fill="" p-id="1117"></path></svg>
