<svg t="1640243476907" class="icon" viewBox="0 0 1024 1024" version="1.1" xmlns="http://www.w3.org/2000/svg" p-id="3984" width="200" height="200"><path d="M936.316466 159.387852c-2.361432-0.205087-241.211754-26.286309-407.238568-153.575097a27.856691 27.856691 0 0 0-34.056182 0c-165.136151 126.568052-404.877137 153.370009-407.232709 153.575097-14.97136 1.459048-26.186696 14.65494-26.186695 30.446648 0 6.961243 0.597682 172.279042 53.937913 357.853589 31.589276 109.926697 75.179079 204.067546 129.802569 279.715396 69.184676 95.904598 164.813871 162.089142 266.671855 196.596515 101.957598-34.507373 197.457881-100.586444 266.636697-196.596515 54.523876-75.548236 98.219153-169.571892 129.808429-279.715396 53.240617-185.574547 53.932053-350.892346 53.932054-357.853589 0.105473-15.791708-11.115722-28.887986-26.075363-30.446648z m-205.567612 245.354513l-232.844199 256.640165a34.589408 34.589408 0 0 1-23.784246 13.348242 27.405499 27.405499 0 0 1-3.170061 0.123052c-8.432011 0-16.869881-3.052868-22.969758-8.197625l-149.649143-130.540883c-14.531887-12.311087-16.172584-34.220251-3.867357-48.640806a34.39604 34.39604 0 0 1 26.245292-12.059123c8.203485 0 16.184304 2.929816 22.395513 8.197626l121.874488 106.762496 210.694789-227.693583c11.490738-15.117851 33.159658-18.047667 48.511894-6.328402 7.265944 5.625247 12.076702 13.711539 13.242769 22.852565a33.944849 33.944849 0 0 1-6.679981 25.536276z" fill="" p-id="3985"></path></svg>
